<svg xmlns="http://www.w3.org/2000/svg" viewBox="0 0 1200 1920" width="1200" height="1920"><rect width="1200" height="1920" fill="#1a1a2e"/><defs><marker id="arrow" markerWidth="10" markerHeight="7" refX="10" refY="3.5" orient="auto"><polygon points="0 0, 10 3.5, 0 7" fill="#ff4aff"/></marker><clipPath id="tl-clip-0"><rect x="20.0" y="55.0" width="1160.0" height="50.0"/></clipPath></defs><rect x="20.0" y="55.0" width="1160.0" height="50.0" rx="4" fill="#16213e" opacity="0.3"/><text x="24.0" y="69.0" fill="#e0e0e0" font-size="12" font-weight="bold">main</text><g clip-path="url(#tl-clip-0)"></g><rect x="20.0" y="60.0" width="1160.0" height="24" rx="4" fill="#4a9eff" opacity="0.85"/><text x="1184.0" y="76.0" fill="#e0e0e0" font-size="12" dominant-baseline="middle">bilbo</text><rect x="20.0" y="100.0" width="1160.0" height="24" rx="4" fill="#4a9eff" opacity="0.85"/><text x="1184.0" y="116.0" fill="#e0e0e0" font-size="12" dominant-baseline="middle">frodo</text><rect x="20.0" y="140.0" width="1160.0" height="24" rx="4" fill="#4a9eff" opacity="0.85"/><text x="1184.0" y="156.0" fill="#e0e0e0" font-size="12" dominant-baseline="middle">gandalf</text><rect x="20.0" y="180.0" width="1160.0" height="24" rx="4" fill="#ff4aff" opacity="0.85"/><text x="1184.0" y="196.0" fill="#e0e0e0" font-size="12" dominant-baseline="middle">ring</text><line x1="20.0" y1="40" x2="20.0" y2="1900.0" stroke="#666666" stroke-width="0.5" opacity="0.3"/><text x="20.0" y="35" fill="#666666" font-size="10" text-anchor="middle">0</text><line x1="136.0" y1="40" x2="136.0" y2="1900.0" stroke="#666666" stroke-width="0.5" opacity="0.3"/><text x="136.0" y="35" fill="#666666" font-size="10" text-anchor="middle">10</text><line x1="252.0" y1="40" x2="252.0" y2="1900.0" stroke="#666666" stroke-width="0.5" opacity="0.3"/><text x="252.0" y="35" fill="#666666" font-size="10" text-anchor="middle">20</text><line x1="368.0" y1="40" x2="368.0" y2="1900.0" stroke="#666666" stroke-width="0.5" opacity="0.3"/><text x="368.0" y="35" fill="#666666" font-size="10" text-anchor="middle">30</text><line x1="484.0" y1="40" x2="484.0" y2="1900.0" stroke="#666666" stroke-width="0.5" opacity="0.3"/><text x="484.0" y="35" fill="#666666" font-size="10" text-anchor="middle">40</text><line x1="600.0" y1="40" x2="600.0" y2="1900.0" stroke="#666666" stroke-width="0.5" opacity="0.3"/><text x="600.0" y="35" fill="#666666" font-size="10" text-anchor="middle">50</text><line x1="716.0" y1="40" x2="716.0" y2="1900.0" stroke="#666666" stroke-width="0.5" opacity="0.3"/><text x="716.0" y="35" fill="#666666" font-size="10" text-anchor="middle">60</text><line x1="832.0" y1="40" x2="832.0" y2="1900.0" stroke="#666666" stroke-width="0.5" opacity="0.3"/><text x="832.0" y="35" fill="#666666" font-size="10" text-anchor="middle">70</text><line x1="948.0" y1="40" x2="948.0" y2="1900.0" stroke="#666666" stroke-width="0.5" opacity="0.3"/><text x="948.0" y="35" fill="#666666" font-size="10" text-anchor="middle">80</text><line x1="1064.0" y1="40" x2="1064.0" y2="1900.0" stroke="#666666" stroke-width="0.5" opacity="0.3"/><text x="1064.0" y="35" fill="#666666" font-size="10" text-anchor="middle">90</text><line x1="1180.0" y1="40" x2="1180.0" y2="1900.0" stroke="#666666" stroke-width="0.5" opacity="0.3"/><text x="1180.0" y="35" fill="#666666" font-size="10" text-anchor="middle">100</text><path d="M 600.0,72.0 C 588.0,72.0 612.0,112.0 600.0,112.0" stroke="#ff4aff" stroke-width="1.5" fill="none" opacity="0.7" marker-end="url(#arrow)""/><text x="600.0" y="88.0" fill="#ff4aff" font-size="10" text-anchor="middle" opacity="0.8">mentors</text><path d="M 600.0,112.0 C 576.0,112.0 624.0,192.0 600.0,192.0" stroke="#ff4aff" stroke-width="1.5" fill="none" opacity="0.7" marker-end="url(#arrow)""/><text x="600.0" y="148.0" fill="#ff4aff" font-size="10" text-anchor="middle" opacity="0.8">carries</text><path d="M 600.0,152.0 C 588.0,152.0 612.0,112.0 600.0,112.0" stroke="#ff4aff" stroke-width="1.5" fill="none" opacity="0.7" marker-end="url(#arrow)""/><text x="600.0" y="128.0" fill="#ff4aff" font-size="10" text-anchor="middle" opacity="0.8">guides</text></svg>